<svg width="827" height="671" viewBox="0 0 827 671" fill="none" xmlns="http://www.w3.org/2000/svg">
<g opacity="0.05">
<path d="M552.437 656.228C507.557 670.683 459.64 674.585 417.349 666.304C381.285 659.104 349.609 643.58 324.959 621.442C317.956 614.901 312.053 607.297 307.057 598.283C283.906 558.547 272.95 464.94 226.125 438.327C168.085 405.694 46.8499 421.213 8.07981 324.877C-3.31909 297.207 -1.22836 263.419 10.2014 231.252C19.4404 205.285 37.2037 180.483 57.9416 159.018C91.4851 124.11 132.223 96.0907 176.896 73.1406C202.246 59.9953 229.179 48.6915 255.636 38.5582C310.032 17.9225 393.531 92.5765 449.911 82.6242C535.199 67.9772 595.874 -22.6952 667.503 6.03026C683.506 12.5678 699.033 20.2758 712.361 30.1088C729.14 42.1073 743.099 56.1227 755.72 71.7858C773.091 92.973 786.781 116.654 797.695 141.421C835.681 228.221 837.172 333.439 794.559 433.195C745.22 546.195 647.51 625.734 552.437 656.228Z" fill="url(#paint0_linear_25_2015)"/>
<path d="M552.437 656.228C507.557 670.683 459.64 674.585 417.349 666.304C381.285 659.104 349.609 643.58 324.959 621.442C317.956 614.901 312.053 607.297 307.057 598.283C283.906 558.547 272.95 464.94 226.125 438.327C168.085 405.694 46.8499 421.213 8.07981 324.877C-3.31909 297.207 -1.22836 263.419 10.2014 231.252C19.4404 205.285 37.2037 180.483 57.9416 159.018C91.4851 124.11 132.223 96.0907 176.896 73.1406C202.246 59.9953 229.179 48.6915 255.636 38.5582C310.032 17.9225 393.531 92.5765 449.911 82.6242C535.199 67.9772 595.874 -22.6952 667.503 6.03026C683.506 12.5678 699.033 20.2758 712.361 30.1088C729.14 42.1073 743.099 56.1227 755.72 71.7858C773.091 92.973 786.781 116.654 797.695 141.421C835.681 228.221 837.172 333.439 794.559 433.195C745.22 546.195 647.51 625.734 552.437 656.228Z" fill="url(#paint1_linear_25_2015)"/>
</g>
<defs>
<linearGradient id="paint0_linear_25_2015" x1="793.354" y1="377.09" x2="79.4362" y2="85.6793" gradientUnits="userSpaceOnUse">
<stop offset="0.00666585" stop-color="#FF9C37"/>
<stop offset="0.9967" stop-color="#FF7300"/>
</linearGradient>
<linearGradient id="paint1_linear_25_2015" x1="684.396" y1="-235.596" x2="396.43" y2="941.824" gradientUnits="userSpaceOnUse">
<stop stop-color="#FFDF00"/>
<stop offset="1" stop-color="#FFB800"/>
</linearGradient>
</defs>
</svg>
