<svg width="851" height="713" viewBox="0 0 851 713" fill="none" xmlns="http://www.w3.org/2000/svg">
<g opacity="0.5">
<path d="M92.7459 647.593C124.956 678.14 166.341 700.055 209.982 708.517C247.281 715.605 285.625 713.293 321.566 702.163C331.929 698.766 341.934 693.964 351.965 687.508C397.216 659.475 442.679 610.577 501.585 603.76C574.383 595.638 697.007 622.546 790.866 547.956C818.064 526.633 836.658 494.482 845.74 460.271C853.061 432.647 851.891 402.852 845.98 375.017C836.533 329.819 816.338 288.266 789.472 249.915C774.302 228.039 756.568 207.267 738.559 187.763C701.411 147.847 659.744 111.931 614.303 81.1708C545.313 35.0177 465.055 1.02708 382.219 0.334602C363.639 0.29108 344.785 1.51569 326.648 5.55126C304.046 10.2787 282.796 17.9546 261.767 27.67C233.049 40.6979 206.179 57.4456 181.185 76.2594C93.8285 142.301 28.6211 239.364 7.00004 348.198C-16.5168 471.89 24.4379 582.999 92.7459 647.593Z" fill="url(#paint0_linear_8_508)"/>
<path d="M92.7459 647.593C124.956 678.14 166.341 700.055 209.982 708.517C247.281 715.605 285.625 713.293 321.566 702.163C331.929 698.766 341.934 693.964 351.965 687.508C397.216 659.475 442.679 610.577 501.585 603.76C574.383 595.638 697.007 622.546 790.866 547.956C818.064 526.633 836.658 494.482 845.74 460.271C853.061 432.647 851.891 402.852 845.98 375.017C836.533 329.819 816.338 288.266 789.472 249.915C774.302 228.039 756.568 207.267 738.559 187.763C701.411 147.847 659.744 111.931 614.303 81.1708C545.313 35.0177 465.055 1.02708 382.219 0.334602C363.639 0.29108 344.785 1.51569 326.648 5.55126C304.046 10.2787 282.796 17.9546 261.767 27.67C233.049 40.6979 206.179 57.4456 181.185 76.2594C93.8285 142.301 28.6211 239.364 7.00004 348.198C-16.5168 471.89 24.4379 582.999 92.7459 647.593Z" fill="url(#paint1_linear_8_508)"/>
</g>
<defs>
<linearGradient id="paint0_linear_8_508" x1="186.721" y1="275.618" x2="978.938" y2="446.733" gradientUnits="userSpaceOnUse">
<stop offset="0.00666585" stop-color="#FF9C37"/>
<stop offset="0.9967" stop-color="#FF7300"/>
</linearGradient>
<linearGradient id="paint1_linear_8_508" x1="657.989" y1="-251.302" x2="476.828" y2="990.62" gradientUnits="userSpaceOnUse">
<stop stop-color="#FFDF00"/>
<stop offset="1" stop-color="#FFB800"/>
</linearGradient>
</defs>
</svg>
